<svg width="504" height="512" viewBox="0 0 504 512" fill="none" xmlns="http://www.w3.org/2000/svg">
<path d="M0 0H504V512H0V0Z" fill="#67206E"/>
<path d="M94 115H114V135H94V115Z" fill="white"/>
<path d="M119 206C119 208.761 116.761 211 114 211C111.239 211 109 208.761 109 206C109 203.239 111.239 201 114 201C116.761 201 119 203.239 119 206Z" fill="#DCF303"/>
<path d="M283 206C283 208.761 280.761 211 278 211C275.239 211 273 208.761 273 206C273 203.239 275.239 201 278 201C280.761 201 283 203.239 283 206Z" fill="#DCF303"/>
<path d="M201 206C201 208.761 198.761 211 196 211C193.239 211 191 208.761 191 206C191 203.239 193.239 201 196 201C198.761 201 201 203.239 201 206Z" fill="#DCF303"/>
<path d="M119 256C119 258.761 116.761 261 114 261C111.239 261 109 258.761 109 256C109 253.239 111.239 251 114 251C116.761 251 119 253.239 119 256Z" fill="#DCF303"/>
<path d="M283 256C283 258.761 280.761 261 278 261C275.239 261 273 258.761 273 256C273 253.239 275.239 251 278 251C280.761 251 283 253.239 283 256Z" fill="#DCF303"/>
<path d="M201 256C201 258.761 198.761 261 196 261C193.239 261 191 258.761 191 256C191 253.239 193.239 251 196 251C198.761 251 201 253.239 201 256Z" fill="#DCF303"/>
<path d="M149 410C149 415.523 144.523 420 139 420C133.477 420 129 415.523 129 410C129 404.477 133.477 400 139 400C144.523 400 149 404.477 149 410Z" fill="#23232D"/>
</svg>
